# xmcd
#
# Track frame offsets: 
#        150
#        6362
#        26532
#        44360
#        64410
#        82595
#        100895
#        110330
#        132000
#        150550
#        168467
#        190877
#        215825
#        233407
#        251885
#
# Disc length: 3450 seconds
#
# Revision: 2
# Processed by: cddbd v1.5.2PL0 Copyright (c) Steve Scherf et al.
# Submitted via: ExactAudioCopy v1.0b3
#
DISCID=c10d780f
DTITLE=Elements Of Life - Elements Of Life
DYEAR=1998
DGENRE=Soul
TTITLE0=Take A Chance
TTITLE1=Freaky Tonight
TTITLE2=I Fall So Deep
TTITLE3=Gift Of Love
TTITLE4=Love The Way
TTITLE5=Make Sure You're Right
TTITLE6=On My Mind
TTITLE7=I'll Take A Chance
TTITLE8=Sweet Love
TTITLE9=Get It On
TTITLE10=Not Afraid To Love
TTITLE11=Spend My Life With You
TTITLE12=All I Need Is Your Love
TTITLE13=What About Our Love
TTITLE14=Boulevard
EXTD=
EXTT0=Intro
EXTT1=
EXTT2=
EXTT3=
EXTT4=
EXTT5=
EXTT6=Interlude
EXTT7=
EXTT8=
EXTT9=
EXTT10=
EXTT11=
EXTT12=
EXTT13=
EXTT14=Outro
PLAYORDER=
